# xmcd
#
# Track frame offsets: 
#        150
#        10030
#        24538
#        45601
#        68549
#        85623
#        105679
#        120044
#        132148
#
# Disc length: 1986 seconds
#
# Revision: 0
# Processed by: cddbd v1.5.2PL0 Copyright (c) Steve Scherf et al.
# Submitted via: ExactAudioCopy v1.3
#
DISCID=5b07c009
DTITLE=Lloyd Spiegel - Backroads
DYEAR=2018
DGENRE=Blues
TTITLE0=The Kick Around
TTITLE1=Betcha Bottom Dollar
TTITLE2=Bridges to Burn
TTITLE3=Christina
TTITLE4=The Price You Pay
TTITLE5=Man on Fire
TTITLE6=Candy Cane
TTITLE7=Sweet South West Blues
TTITLE8=Emerald City Sky
EXTD=
EXTT0=
EXTT1=
EXTT2=
EXTT3=
EXTT4=
EXTT5=
EXTT6=
EXTT7=
EXTT8=
PLAYORDER=
